#File written by LIBUNFOLD3D. Compilation :Oct 26 2011,14:21:15

#begin vertices
v 0.33825100000000002 9.9277479999999994 5.4778219999999997
v 1.0011829999999999 9.8690809999999995 5.4845889999999997
v 0.663489 13.523258999999999 4.7868360000000001
v 1.326422 13.464593000000001 4.7936030000000001
v 0.64613299999999996 12.181464999999999 -5.1455330000000004
v 1.3090660000000001 12.122799000000001 -5.1387650000000002
v 0.350273 8.8694319999999998 -4.8749710000000004
v 1.0132060000000001 8.8107659999999992 -4.8682040000000004
v 0.63503200000000004 12.637392 -0.10537299999999999
v 1.297965 12.578726 -0.098605999999999999
v 1.0365899999999999 9.6619589999999995 0.22036900000000001
v 0.37365700000000002 9.7206250000000001 0.21360199999999999
v 0.50248400000000004 11.759586000000001 5.269692
v 1.1654169999999999 11.70092 5.276459
v 1.1654169999999999 11.098598000000001 0.054656000000000003
v 1.1654169999999999 10.496276 -5.1671480000000001
v 0.50248400000000004 10.554942 -5.1739139999999999
v 0.50248400000000004 11.157265000000001 0.047889000000000001
v -0.73875599999999997 0 0.55408500000000005
v -0.55408500000000005 0 0.73875599999999997
v -0.72756900000000002 13.410550000000001 0.22164300000000001
v -0.54569500000000004 13.410550000000001 0.40351700000000001
v 0.73875599999999997 0 0.55408500000000005
v 0.55408500000000005 0 0.73875599999999997
v 0.72756900000000002 13.410550000000001 0.22164300000000001
v 0.54569500000000004 13.410550000000001 0.40351700000000001
v -0.72756900000000002 13.410550000000001 -0.86974600000000002
v -0.54569500000000004 13.410550000000001 -1.05162
v -0.73875599999999997 0 -0.55408500000000005
v -0.55408500000000005 0 -0.73875599999999997
v 0.54569500000000004 13.410550000000001 -1.05162
v 0.72756900000000002 13.410550000000001 -0.86974600000000002
v 0.73875599999999997 0 -0.55408500000000005
v 0.55408500000000005 0 -0.73875599999999997
v -0.65282799999999996 6.7052750000000003 0.74326999999999999
v -0.48925800000000003 6.7052750000000003 0.90683899999999995
v 0.49228699999999997 6.7052750000000003 0.90683899999999995
v 0.65585700000000002 6.7052750000000003 0.74326999999999999
v 0.65585700000000002 6.7052750000000003 -0.23827599999999999
v 0.49228699999999997 6.7052750000000003 -0.40184500000000001
v -0.48925800000000003 6.7052750000000003 -0.40184500000000001
v -0.65282799999999996 6.7052750000000003 -0.23827599999999999
v -0.75035099999999999 10.057912 0.83259099999999997
v -0.91337800000000002 10.057912 0.66956400000000005
v -0.91337800000000002 10.057912 -0.30873
v -0.75035099999999999 10.057912 -0.47175800000000001
v 0.22794400000000001 10.057912 -0.47175800000000001
v 0.39097100000000001 10.057912 -0.30873
v 0.39097100000000001 10.057912 0.66956400000000005
v 0.22794400000000001 10.057912 0.83259099999999997
v -0.73875599999999997 3.3526379999999998 0.66449999999999998
v -0.55408500000000005 3.3526379999999998 0.84916999999999998
v 0.55408500000000005 3.3526379999999998 0.84916999999999998
v 0.73875599999999997 3.3526379999999998 0.66449999999999998
v 0.73875599999999997 3.3526379999999998 -0.44367099999999998
v 0.55408500000000005 3.3526379999999998 -0.62834199999999996
v -0.55408500000000005 3.3526379999999998 -0.62834199999999996
v -0.73875599999999997 3.3526379999999998 -0.44367099999999998
v -0.56798400000000004 13.686377999999999 -0.83484899999999995
v 0.56798400000000004 13.686377999999999 -0.83484899999999995
v 0.42600300000000002 13.686377999999999 -0.97880900000000004
v -0.42600300000000002 13.686377999999999 -0.97880900000000004
v -0.56798400000000004 13.686377999999999 0.029027000000000001
v 0.56798400000000004 13.686377999999999 0.029027000000000001
v -0.42600300000000002 13.686377999999999 0.172987
v 0.42600300000000002 13.686377999999999 0.172987
#end vertices

#begin 88 textures vertices 
vt 0.050475408989773977 0.43338161652399165 0
vt 0.055099483186760154 0.049638370144274288 0
vt 0.058014424171434903 0.25703617822193175 0
vt 0.025681014681462108 0.25473920403975109 0
vt 0.54779965013445653 0.26788931480454209 0
vt 0.54868594840522067 0.23630069350872893 0
vt 0.54669708779450399 0.42802327940966944 0
vt 0.55806949127435945 0.077053619354303049 0
vt 0.3006758481555003 0.26034867910077614 0
vt 0.30134306508480529 0.22754428764561827 0
vt 0.30833570342177907 0.083374677625755719 0
vt 0.30150361965551425 0.40409667747366723 0
vt 0.049726094622886977 0.34444834569073179 0
vt 0.050612004221603744 0.1382428329542616 0
vt 0.3050445805232801 0.15433019082971364 0
vt 0.55843197134386569 0.15916716216114218 0
vt 0.55496230931079304 0.34589876246414769 0
vt 0.30162913220726173 0.33328673931000669 0
vt 0.31009427011520668 0.051195676912020295 0
vt 0.59023580002688236 0.16090569804545554 0
vt 0.55770757106438285 0.044911422867022273 0
vt 0.59044770165333738 0.077634283046272581 0
vt 0.017718750000000449 0.34326212254166361 0
vt 0.058503750471021104 0.22547337662503339 0
vt 0.58121501846456514 0.23963079226150569 0
vt 0.018168044333433598 0.43318918028079911 0
vt 0.05897513697707904 0.017718750000000449 0
vt 0.27493095886893576 0.55924339056946337 0
vt 0.27526089223101741 0.51107641845010221 0
vt 0.43488092685583984 0.51439689937978983 0
vt 0.43677122530061757 0.56197881558910012 0
vt 0.4365066188620404 0.63226257404312491 0
vt 0.43400416767690336 0.68021065089851618 0
vt 0.26904264092445379 0.68060155212879181 0
vt 0.2699423735029996 0.63178425608202815 0
vt 0.27085259137675172 0.62007430195808411 0
vt 0.27427668822929269 0.57068137498572469 0
vt 0.437079657916911 0.57317593274638057 0
vt 0.43684886361006653 0.62100407667458057 0
vt 0.27332588401623076 0.73925340711139143 0
vt 0.26960949483327573 0.69189651240594685 0
vt 0.43348225916270172 0.69153812737204134 0
vt 0.4319694313453511 0.73959830263629556 0
vt 0.042127871216507629 0.60675285221077502 0
vt 0.093971677037188783 0.61382418242283165 0
vt 0.088221818004967645 0.61899166577495635 0
vt 0.048348964744945995 0.61383454990573227 0
vt 0.82457973528653383 0.62667880090884864 0
vt 0.81435515871271491 0.6356421378441155 0
vt 0.7625481397844851 0.63441942282952368 0
vt 0.7583916038274765 0.62360042426735163 0
vt 0.43453491211403167 0.50316761946305633 0
vt 0.2747798645868898 0.49987229146063328 0
vt 0.04843149226508104 0.5661773516330868 0
vt 0.099321209854679182 0.57635067985393107 0
vt 0.056108981516445063 0.56067363196052611 0
vt 0.095430694083916023 0.56906646280549467 0
vt 0.75571455480530858 0.57243053428828716 0
vt 0.82698192819952965 0.56757825776003301 0
vt 0.75995980342850089 0.56150780199095607 0
vt 0.81595245795324445 0.55883676139637828 0
vt 0.59802325488999486 0.49098877236247068 0
vt 0.59781543398275971 0.503654302097857 0
vt 0.59758699592202902 0.55720311705954373 0
vt 0.5977299022488296 0.56978470552712679 0
vt 0.59905540850013494 0.6234257675241679 0
vt 0.59933780459687114 0.63600659021176398 0
vt 0.59888846846297383 0.68890902795828879 0
vt 0.59832992032170296 0.70137922489084303 0
vt 0.59484043763950467 0.75450326758436859 0
vt 0.11402690265094861 0.50517773302271962 0
vt 0.1134132772567682 0.49271908169612294 0
vt 0.10445259846164845 0.69259761343710124 0
vt 0.1115118823654484 0.74396077450364828 0
vt 0.10270455837599002 0.68065397860482335 0
vt 0.10007724087336101 0.63041056459769607 0
vt 0.10507691532257013 0.61892951978370547 0
vt 0.11284450889797881 0.56853624852374196 0
vt 0.11109073282568716 0.55657105403952301 0
vt 0.76268833642825484 0.49536838592030108 0
vt 0.76191654801368713 0.50801235600374639 0
vt 0.76269999984651804 0.68817923963069916 0
vt 0.7623324254527688 0.70088753523305058 0
vt 0.7606723322533071 0.75484898779541254 0
vt 0.037040765309939161 0.62517869682051241 0
vt 0.026799013910931539 0.6104252974037081 0
vt 0.037456318765180185 0.55155660887248814 0
vt 0.050972869372344583 0.54343492304906249 0
#end 88 textures vertices 

#begin 170 normals 
vn 0.0066259999999999999 0.18814500000000001 0.98211899999999996
vn 0.0066259999999999999 0.18814500000000001 0.98211899999999996
vn 0.013417999999999999 0.26289800000000002 0.96472999999999998
vn 0.013417999999999999 0.26289800000000002 0.96472999999999998
vn 0.088714000000000001 0.98707 -0.13350100000000001
vn 0.088714000000000001 0.98707 -0.13350100000000001
vn 0.088703000000000004 0.99202500000000005 -0.089541999999999997
vn 0.088703000000000004 0.99202500000000005 -0.089541999999999997
vn 0.011658 0.016416 -0.99979700000000005
vn 0.011658 0.016416 -0.99979700000000005
vn 0.0029450000000000001 -0.081680000000000003 -0.99665400000000004
vn 0.0029450000000000001 -0.081680000000000003 -0.99665400000000004
vn -0.088614999999999999 -0.98234999999999995 0.16472999999999999
vn -0.088614999999999999 -0.98234999999999995 0.16472999999999999
vn -0.088722999999999996 -0.99090299999999998 0.101192
vn -0.088722999999999996 -0.99090299999999998 0.101192
vn 0.99605600000000005 -0.088146000000000002 0.010167000000000001
vn 0.99605600000000005 -0.088146000000000002 0.010167000000000001
vn 0.99605600000000005 -0.088146000000000002 0.010167000000000001
vn 0.99605600000000005 -0.088146000000000002 0.010167000000000001
vn -0.99605600000000005 0.088146000000000002 -0.010167000000000001
vn -0.99605600000000005 0.088146000000000002 -0.010167000000000001
vn -0.99605600000000005 0.088146000000000002 -0.010167000000000001
vn -0.99605600000000005 0.088146000000000002 -0.010167000000000001
vn 0.088546 0.980043 -0.177978
vn 0.088546 0.980043 -0.177978
vn 0.99605600000000005 -0.088146000000000002 0.010167000000000001
vn 0.99605600000000005 -0.088146000000000002 0.010167000000000001
vn -0.088475999999999999 -0.99533099999999997 0.038566999999999997
vn -0.088475999999999999 -0.99533199999999999 0.038566999999999997
vn -0.99605600000000005 0.088146000000000002 -0.010167000000000001
vn -0.99605600000000005 0.088146000000000002 -0.010167000000000001
vn -0.00014899999999999999 0.11290500000000001 0.99360599999999999
vn -0.00014899999999999999 0.11290500000000001 0.99360599999999999
vn 0.99605600000000005 -0.088146000000000002 0.010167000000000001
vn 0.99605600000000005 -0.088146000000000002 0.010167000000000001
vn 0.99605600000000005 -0.088146000000000002 0.010167000000000001
vn -0.0053600000000000002 -0.17416300000000001 -0.98470199999999997
vn -0.0053600000000000002 -0.17416300000000001 -0.98470199999999997
vn -0.99605600000000005 0.088146000000000002 -0.010167000000000001
vn -0.99605600000000005 0.088146000000000002 -0.010167000000000001
vn -0.99605600000000005 0.088146000000000002 -0.010167000000000001
vn 0 0.076521000000000006 0.99706799999999995
vn 0 0.076583999999999999 0.99706300000000003
vn 0 0.002196 0.99999800000000005
vn 0 0.0012229999999999999 0.99999899999999997
vn 0 0.026151000000000001 -0.99965800000000005
vn 0 0.023966000000000001 -0.99971299999999996
vn 0 -0.098935999999999996 -0.99509400000000003
vn 0 -0.098823999999999995 -0.99510500000000002
vn 0.999834 -0.018201999999999999 0
vn 0.99996300000000005 -0.0085780000000000006 0
vn 0.99870199999999998 0.050944000000000003 0
vn 0.99871900000000002 0.050594 0
vn -0.999919 -0.012727 0
vn -0.99998500000000001 -0.0055630000000000002 0
vn -0.999718 -0.023734999999999999 0
vn -0.99970199999999998 -0.024403999999999999 0
vn 0 1 0
vn 0 1 0
vn 0 1 3.0000000000000001e-006
vn 0 1 3.0000000000000001e-006
vn 0 -1 0
vn 0 -1 0
vn 0 -1 0
vn 0 -1 0
vn -0.70698499999999997 -0.018513999999999999 0.706986
vn -0.70699199999999995 -0.017989999999999999 0.70699299999999998
vn -0.70635099999999995 0.046225000000000002 0.70635099999999995
vn -0.70611800000000002 0.052866999999999997 0.70611800000000002
vn 0.70665500000000003 0.035715999999999998 0.70665599999999995
vn 0.70669400000000004 0.034155999999999999 0.70669499999999996
vn 0.70636299999999996 0.045858999999999997 0.70636299999999996
vn 0.70630199999999999 0.047683999999999997 0.70630300000000001
vn -0.70515700000000003 -0.074212 -0.70515700000000003
vn -0.70513800000000004 -0.074564000000000005 -0.70513899999999996
vn -0.70710700000000004 -0.00052899999999999996 -0.70710700000000004
vn -0.70710200000000001 -0.0034329999999999999 -0.70710300000000004
vn 0.70474800000000004 -0.081602999999999995 -0.70474899999999996
vn 0.70522799999999997 -0.072841000000000003 -0.70522899999999999
vn 0.70617600000000003 0.051300999999999999 -0.70617600000000003
vn 0.70618499999999995 0.051048000000000003 -0.70618499999999995
vn 0 1 0
vn 0 1 0
vn 0 1 6.9999999999999999e-006
vn 0 1 6.9999999999999999e-006
vn 0 -1 0
vn 0 -1 0
vn 0 -1 0
vn 0 -1 0
vn -0.70706000000000002 -0.011481999999999999 0.70706000000000002
vn -0.707063 -0.011058999999999999 0.70706400000000003
vn 0 -0.025339 0.99967899999999998
vn 0 -0.025336999999999998 0.99967899999999998
vn 0.70706100000000005 -0.011377 0.70706100000000005
vn 0.70705799999999996 -0.011783999999999999 0.70705799999999996
vn 0.99992499999999995 0.012220999999999999 0
vn 0.99993200000000004 0.011625999999999999 0
vn 0.70648999999999995 0.041751000000000003 -0.70648999999999995
vn 0.70650900000000005 0.041112999999999997 -0.70650900000000005
vn 0 0.049574 -0.99877000000000005
vn 0 0.049569000000000002 -0.99877099999999996
vn -0.70650000000000002 0.041419999999999998 -0.70650000000000002
vn -0.70648100000000003 0.042061000000000001 -0.70648100000000003
vn -0.99992700000000001 0.012050999999999999 0
vn -0.99992000000000003 0.012668 0
vn -0.70087299999999997 0.13248199999999999 0.700874
vn -0.700874 0.13248199999999999 0.700874
vn -0.99846800000000002 0.055336999999999997 0
vn -0.99846800000000002 0.055336999999999997 0
vn -0.70490299999999995 -0.078888 -0.70490299999999995
vn -0.70490299999999995 -0.078888 -0.70490299999999995
vn 0 -0.170427 -0.98536999999999997
vn 0 -0.170427 -0.98536999999999997
vn 0.69476599999999999 -0.18601200000000001 -0.69476599999999999
vn 0.69476599999999999 -0.18601200000000001 -0.69476599999999999
vn 0.99499800000000005 -0.099895999999999999 0
vn 0.99499800000000005 -0.099895999999999999 0
vn 0.70691199999999998 0.023473000000000001 0.70691199999999998
vn 0.70691199999999998 0.023473000000000001 0.70691199999999998
vn 0 0.126946 0.99190999999999996
vn 0 0.126946 0.99190999999999996
vn -0.70691499999999996 -0.023281 0.70691499999999996
vn -0.70691499999999996 -0.023281 0.70691499999999996
vn 0 -0.032916000000000001 0.99945799999999996
vn 0 -0.032916000000000001 0.99945799999999996
vn 0.70691499999999996 -0.023281 0.70691499999999996
vn 0.70691499999999996 -0.023281 0.70691499999999996
vn 1 -0 0
vn 1 -0 0
vn 0.70691499999999996 0.023281 -0.70691499999999996
vn 0.70691499999999996 0.023281 -0.70691499999999996
vn 0 0.032916000000000001 -0.99945799999999996
vn 0 0.032916000000000001 -0.99945799999999996
vn -0.70691499999999996 0.023281 -0.70691499999999996
vn -0.70691499999999996 0.023281 -0.70691499999999996
vn -1 0 0
vn -1 0 0
vn 0.63521300000000003 0.44484800000000002 -0.63136000000000003
vn 0.63521300000000003 0.44484800000000002 -0.63136000000000003
vn 0.63521300000000003 0.44484800000000002 -0.63136000000000003
vn 0.63521300000000003 0.44484800000000002 -0.63136000000000003
vn 0 0.25523099999999999 -0.96687999999999996
vn 0 0.25523099999999999 -0.96687999999999996
vn 0 0.25523099999999999 -0.96687999999999996
vn 0 0.25523099999999999 -0.96687999999999996
vn -0.63521399999999995 0.44484800000000002 -0.631359
vn -0.63521399999999995 0.44484800000000002 -0.63135799999999997
vn -0.63521399999999995 0.44484800000000002 -0.63135799999999997
vn -0.63521399999999995 0.44484800000000002 -0.63135799999999997
vn 0.86556999999999995 0.50078900000000004 0
vn 0.86556999999999995 0.50078900000000004 0
vn 0.86556999999999995 0.50078900000000004 0
vn 0.86556999999999995 0.50078900000000004 0
vn -0.86556999999999995 0.50078900000000004 0
vn -0.86556999999999995 0.50078900000000004 0
vn -0.86556999999999995 0.50078900000000004 0
vn -0.86556999999999995 0.50078900000000004 0
vn -0.52724000000000004 0.668879 0.52404099999999998
vn -0.52724000000000004 0.668879 0.52404099999999998
vn -0.52724000000000004 0.668879 0.52404099999999998
vn -0.52724000000000004 0.668879 0.52404099999999998
vn 0 0.641289 0.76729899999999995
vn 0 0.641289 0.76729899999999995
vn 0 0.641289 0.76729899999999995
vn 0 0.641289 0.76729899999999995
vn 0.52724000000000004 0.668879 0.52403999999999995
vn 0.52724000000000004 0.668879 0.52403999999999995
vn 0.52724000000000004 0.668879 0.52403999999999995
vn 0.52724000000000004 0.668879 0.52403999999999995
#end 170 normals 

#begin 62 faces
g pCube3
s 1
f 13/13/1 14/23/2 4/4/3 3/3/4 
s 2
f 9/9/5 10/10/6 6/6/7 5/5/8 
s 3
f 5/25/9 6/6/10 16/16/11 17/20/12 
s 4
f 7/21/13 8/8/14 11/11/15 12/19/16 
s 5
f 10/10/17 15/15/18 16/16/19 6/6/20 
s 6
f 17/17/21 18/18/22 9/9/23 5/5/24 
s 2
f 3/3/25 4/24/26 10/10/6 9/9/5 
s 5
f 14/14/27 15/15/18 10/10/17 4/24/28 
s 4
f 12/19/16 11/11/15 2/2/29 1/27/30 
s 6
f 9/9/23 18/18/22 13/13/31 3/3/32 
s 1
f 1/1/33 2/26/34 14/23/2 13/13/1 
s 5
f 2/2/35 11/11/36 15/15/18 14/14/27 
f 16/16/19 15/15/18 11/11/36 8/8/37 
s 3
f 17/20/12 16/16/11 8/8/38 7/22/39 
s 6
f 7/7/40 12/12/41 18/18/22 17/17/21 
f 13/13/31 18/18/22 12/12/41 1/1/42 
s 7
f 50/28/43 43/29/44 36/30/45 37/31/46 
s 8
f 40/32/47 41/33/48 46/34/49 47/35/50 
s 9
f 48/36/51 49/37/52 38/38/53 39/39/54 
s 10
f 44/40/55 45/41/56 42/42/57 35/43/58 
s 11
f 59/44/59 60/45/60 61/46/61 62/47/62 
s 12
f 29/48/63 30/49/64 34/50/65 33/51/66 
s 13
f 35/52/67 36/30/68 43/29/69 44/53/70 
s 14
f 37/31/71 38/38/72 49/37/73 50/28/74 
s 15
f 45/41/75 46/34/76 41/33/77 42/42/78 
s 16
f 47/35/79 48/36/80 39/39/81 40/32/82 
s 11
f 63/54/83 64/55/84 60/45/60 59/44/59 
f 63/54/83 65/56/85 66/57/86 64/55/84 
s 12
f 29/48/63 33/51/66 23/58/87 19/59/88 
f 19/59/88 23/58/87 24/60/89 20/61/90 
s 13
f 51/62/91 52/63/92 36/30/68 35/52/67 
s 7
f 37/31/46 36/30/45 52/63/93 53/64/94 
s 14
f 53/64/95 54/65/96 38/38/72 37/31/71 
s 9
f 39/39/54 38/38/53 54/65/97 55/66/98 
s 16
f 40/32/82 39/39/81 55/66/99 56/67/100 
s 8
f 56/67/101 57/68/102 41/33/48 40/32/47 
s 15
f 42/42/78 41/33/77 57/68/103 58/69/104 
s 10
f 35/43/58 42/42/57 58/69/105 51/70/106 
s 13
f 44/53/70 43/29/69 22/71/107 21/72/108 
s 10
f 27/73/109 45/41/56 44/40/55 21/74/110 
s 15
f 27/73/111 28/75/112 46/34/76 45/41/75 
s 8
f 47/35/50 46/34/49 28/75/113 31/76/114 
s 16
f 31/76/115 32/77/116 48/36/80 47/35/79 
s 9
f 25/78/117 49/37/52 48/36/51 32/77/118 
s 14
f 50/28/74 49/37/73 25/78/119 26/79/120 
s 7
f 22/71/121 43/29/44 50/28/43 26/79/122 
s 13
f 19/80/123 20/81/124 52/63/92 51/62/91 
s 7
f 53/64/94 52/63/93 20/81/125 24/60/126 
s 14
f 24/60/127 23/58/128 54/65/96 53/64/95 
s 9
f 55/66/98 54/65/97 23/58/129 33/51/130 
s 16
f 56/67/100 55/66/99 33/51/131 34/50/132 
s 8
f 30/82/133 57/68/102 56/67/101 34/50/134 
s 15
f 58/69/104 57/68/103 30/82/135 29/83/136 
s 10
f 51/70/106 58/69/105 29/83/137 19/84/138 
s off
f 32/77/139 31/76/140 61/46/141 60/45/142 
f 31/76/143 28/85/144 62/47/145 61/46/146 
f 28/85/147 27/86/148 59/44/149 62/47/150 
f 25/78/151 32/77/152 60/45/153 64/55/154 
f 27/86/155 21/87/156 63/54/157 59/44/158 
f 21/87/159 22/88/160 65/56/161 63/54/162 
f 22/88/163 26/79/164 66/57/165 65/56/166 
f 26/79/167 25/78/168 64/55/169 66/57/170 
#end 62 faces
#begin 107 properties
#U3D EDG SEL 28 29
#U3D EDG SEL 27 28
#U3D EDG SEL 29 30
#U3D EDG SEL 30 27
#U3D EDG SEL 31 32
#U3D EDG SEL 34 31
#U3D EDG SEL 32 33
#U3D EDG SEL 33 34
#U3D EDG SEL 35 36
#U3D EDG SEL 38 35
#U3D EDG SEL 36 37
#U3D EDG SEL 37 38
#U3D EDG SEL 40 41
#U3D EDG SEL 39 40
#U3D EDG SEL 41 42
#U3D EDG SEL 42 39
#U3D EDG SEL 43 44
#U3D EDG SEL 46 43
#U3D EDG SEL 44 45
#U3D EDG SEL 45 46
#U3D EDG SEL 47 48
#U3D EDG SEL 50 47
#U3D EDG SEL 48 49
#U3D EDG SEL 49 50
#U3D EDG SEL 51 29
#U3D EDG SEL 28 52
#U3D EDG SEL 52 51
#U3D EDG SEL 30 37
#U3D EDG SEL 36 27
#U3D EDG SEL 40 33
#U3D EDG SEL 32 41
#U3D EDG SEL 34 35
#U3D EDG SEL 38 31
#U3D EDG SEL 53 54
#U3D EDG SEL 43 53
#U3D EDG SEL 54 44
#U3D EDG SEL 53 55
#U3D EDG SEL 55 56
#U3D EDG SEL 56 54
#U3D EDG SEL 58 47
#U3D EDG SEL 50 57
#U3D EDG SEL 57 58
#U3D EDG SEL 60 58
#U3D EDG SEL 57 59
#U3D EDG SEL 59 60
#U3D EDG SEL 61 62
#U3D EDG SEL 51 61
#U3D EDG SEL 62 29
#U3D EDG SEL 63 30
#U3D EDG SEL 62 63
#U3D EDG SEL 64 37
#U3D EDG SEL 63 64
#U3D EDG SEL 64 65
#U3D EDG SEL 65 38
#U3D EDG SEL 65 66
#U3D EDG SEL 66 31
#U3D EDG SEL 67 32
#U3D EDG SEL 66 67
#U3D EDG SEL 68 41
#U3D EDG SEL 67 68
#U3D EDG SEL 69 42
#U3D EDG SEL 68 69
#U3D EDG SEL 28 70
#U3D EDG SEL 70 71
#U3D EDG SEL 71 52
#U3D EDG SEL 72 40
#U3D EDG SEL 73 72
#U3D EDG SEL 39 73
#U3D EDG SEL 74 33
#U3D EDG SEL 72 74
#U3D EDG SEL 74 75
#U3D EDG SEL 75 34
#U3D EDG SEL 75 76
#U3D EDG SEL 76 35
#U3D EDG SEL 77 36
#U3D EDG SEL 76 77
#U3D EDG SEL 78 27
#U3D EDG SEL 77 78
#U3D EDG SEL 78 70
#U3D EDG SEL 79 80
#U3D EDG SEL 61 79
#U3D EDG SEL 80 62
#U3D EDG SEL 59 63
#U3D EDG SEL 80 59
#U3D EDG SEL 57 64
#U3D EDG SEL 50 65
#U3D EDG SEL 49 66
#U3D EDG SEL 81 67
#U3D EDG SEL 49 81
#U3D EDG SEL 82 68
#U3D EDG SEL 81 82
#U3D EDG SEL 83 69
#U3D EDG SEL 82 83
#U3D EDG SEL 44 76
#U3D EDG SEL 75 45
#U3D EDG SEL 75 84
#U3D EDG SEL 84 46
#U3D EDG SEL 85 43
#U3D EDG SEL 84 85
#U3D EDG SEL 54 77
#U3D EDG SEL 86 53
#U3D EDG SEL 85 86
#U3D EDG SEL 87 55
#U3D EDG SEL 86 87
#U3D EDG SEL 87 78
#U3D EDG SEL 78 56
#U3D SYM 0 0 0 1 0 0 0.0001 0
#end 107 properties
